<svg xmlns="http://www.w3.org/2000/svg" version="1.1" xmlns:xlink="http://www.w3.org/1999/xlink" xmlns:svgjs="http://svgjs.com/svgjs" width="1440" height="560" preserveAspectRatio="none" viewBox="0 0 1440 560"><g mask="url(&quot;#SvgjsMask1008&quot;)" fill="none"><path d="M0 555.57L10 536.95L20 507.17L30 534.81L40 545.89L50 537.36L60 526.15L70 487.24L80 437.47L90 372.21L100 415.89L110 374.62L120 428.44L130 454.04L140 458.34L150 495.54L160 537.52L170 489.06L180 463.42L190 530.09L200 481.39L210 454.15L220 384.17L230 371.95L240 439.82L250 467.24L260 409.81L270 354.7L280 382.06L290 342.25L300 316.62L310 353.15L320 316.33L330 324.96L340 354.33L350 303.89L360 240.04L370 268.74L380 228.35L390 188.8L400 130.12L410 179.91L420 203.01L430 253.23L440 220.93L450 181.62L460 168.39L470 124.25L480 164.13L490 118.13L500 54.28L510 47.74L520 76.78L530 120.04L540 160.2L550 201.74L560 183.32L570 158.26L580 213.91L590 159.3L600 118.4L610 166.92L620 107.49L630 44.09L640 4.9L650 4.1L660 64.18L670 101.67L680 76.85L690 127.48L700 147.27L710 132.81L720 151.85L730 100.27L740 77.65L750 105.22L760 65.49L770 68.6L780 134.86L790 135.29L800 132.6L810 103.46L820 43.29L830 111.95L840 147.39L850 141.67L860 94.96L870 40.84L880 6.92L890 11.41L900 22.15L910 60.43L920 31.62L930 92.37L940 48.54L950 81.17L960 98.46L970 142.62L980 150.91L990 97.22L1000 80.47L1010 104.83L1020 133.69L1030 77.57L1040 85.73L1050 103.49L1060 149.04L1070 130.53L1080 123.69L1090 141.51L1100 187.12L1110 231.78L1120 231.05L1130 257.66L1140 288.39L1150 302.31L1160 308.33L1170 314.72L1180 361.21L1190 303.04L1200 291.65L1210 332.73L1220 273.52L1230 244.84L1240 257.43L1250 201.17L1260 195.95L1270 244.89L1280 313.86L1290 268.53L1300 290.07L1310 327.63L1320 389.36L1330 417.09L1340 387.74L1350 363.67L1360 329.79L1370 270.3L1380 306.36L1390 259.14L1400 214.67L1410 191.97L1420 159.18L1430 149.83L1440 206.85" stroke="rgba(197, 213, 205, 1)" stroke-width="2"></path><path d="M0 555.57L10 536.95L20 507.17L30 534.81L40 545.89L50 537.36L60 526.15L70 487.24L80 437.47L90 372.21L100 415.89L110 374.62L120 428.44L130 454.04L140 458.34L150 495.54L160 537.52L170 489.06L180 463.42L190 530.09L200 481.39L210 454.15L220 384.17L230 371.95L240 439.82L250 467.24L260 409.81L270 354.7L280 382.06L290 342.25L300 316.62L310 353.15L320 316.33L330 324.96L340 354.33L350 303.89L360 240.04L370 268.74L380 228.35L390 188.8L400 130.12L410 179.91L420 203.01L430 253.23L440 220.93L450 181.62L460 168.39L470 124.25L480 164.13L490 118.13L500 54.28L510 47.74L520 76.78L530 120.04L540 160.2L550 201.74L560 183.32L570 158.26L580 213.91L590 159.3L600 118.4L610 166.92L620 107.49L630 44.09L640 4.9L650 4.1L660 64.18L670 101.67L680 76.85L690 127.48L700 147.27L710 132.81L720 151.85L730 100.27L740 77.65L750 105.22L760 65.49L770 68.6L780 134.86L790 135.29L800 132.6L810 103.46L820 43.29L830 111.95L840 147.39L850 141.67L860 94.96L870 40.84L880 6.92L890 11.41L900 22.15L910 60.43L920 31.62L930 92.37L940 48.54L950 81.17L960 98.46L970 142.62L980 150.91L990 97.22L1000 80.47L1010 104.83L1020 133.69L1030 77.57L1040 85.73L1050 103.49L1060 149.04L1070 130.53L1080 123.69L1090 141.51L1100 187.12L1110 231.78L1120 231.05L1130 257.66L1140 288.39L1150 302.31L1160 308.33L1170 314.72L1180 361.21L1190 303.04L1200 291.65L1210 332.73L1220 273.52L1230 244.84L1240 257.43L1250 201.17L1260 195.95L1270 244.89L1280 313.86L1290 268.53L1300 290.07L1310 327.63L1320 389.36L1330 417.09L1340 387.74L1350 363.67L1360 329.79L1370 270.3L1380 306.36L1390 259.14L1400 214.67L1410 191.97L1420 159.18L1430 149.83L1440 206.85L1440 560L0 560z" fill="url(#SvgjsLinearGradient1009)"></path></g><defs><mask id="SvgjsMask1008"><rect width="1440" height="560" fill="#ffffff"></rect></mask><linearGradient x1="50%" y1="0%" x2="50%" y2="100%" id="SvgjsLinearGradient1009"><stop stop-opacity="0.65" stop-color="rgba(197, 213, 205, 1)" offset="0"></stop><stop stop-opacity="0" stop-color="#ffffff" offset="0.8"></stop></linearGradient></defs></svg>